<svg height="480pt" viewBox="-31 0 479 480" width="480pt" xmlns="http://www.w3.org/2000/svg"><path d="m376.5 0h-288c-19 .0234375-35.371094 13.386719-39.199219 32h-8.800781c-22.082031.027344-39.972656 17.917969-40 40v368c.027344 22.082031 17.917969 39.972656 40 40h288c19-.023438 35.371094-13.386719 39.199219-32h8.800781c22.082031-.027344 39.972656-17.917969 40-40v-368c-.027344-22.082031-17.917969-39.9726562-40-40zm-48 464h-288c-13.253906 0-24-10.746094-24-24v-368c0-13.253906 10.746094-24 24-24h288c13.253906 0 24 10.746094 24 24v368c0 13.253906-10.746094 24-24 24zm72-56c0 13.253906-10.746094 24-24 24h-8v-360c-.027344-22.082031-17.917969-39.972656-40-40h-262.632812c3.402343-9.582031 12.464843-15.988281 22.632812-16h288c13.253906 0 24 10.746094 24 24zm0 0"/></svg>